<svg width="9" height="15" viewBox="0 0 9 15" fill="none" xmlns="http://www.w3.org/2000/svg">
<path d="M6.13842 10.9015C6.96759 10.7182 7.75634 10.4041 8.47596 9.96906C9.01689 9.62029 9.16344 8.91712 8.80071 8.39443C8.45356 7.89377 7.75877 7.74236 7.22125 8.04988C5.56536 9.04603 3.46055 9.04603 1.80466 8.04988C1.25691 7.71564 0.529016 7.87409 0.181867 8.40099C0.181867 8.40334 0.181867 8.40334 0.181867 8.40334C-0.165282 8.93353 -0.000715126 9.63388 0.549952 9.96578L0.551899 9.96812C1.27006 10.4032 2.05881 10.7177 2.88505 10.8987L0.635644 13.0639C0.176511 13.499 0.169695 14.2064 0.618116 14.6489L0.638078 14.6681C0.861558 14.8898 1.16343 15 1.4653 15C1.76717 15 2.06855 14.8898 2.29154 14.6681L4.5132 12.5413L6.72171 14.6709C7.19107 15.1027 7.93649 15.0928 8.38832 14.6414C8.82895 14.2021 8.82895 13.5055 8.38832 13.0663L6.13842 10.9015ZM4.51271 7.74236C6.73437 7.74002 8.53195 6.00834 8.53438 3.87212C8.53438 1.73823 6.72901 0 4.51271 0C2.29641 0 0.491039 1.73823 0.491039 3.87212C0.493473 6.01116 2.29397 7.74236 4.51271 7.7447V7.74236ZM4.51271 2.27077C5.43049 2.27077 6.17591 2.98847 6.17591 3.87212C6.17591 4.75858 5.43049 5.47394 4.51271 5.47675C3.59493 5.4744 2.84951 4.75858 2.84708 3.87212C2.84951 2.98847 3.59493 2.27077 4.51271 2.26842V2.27077Z" fill="#FDFDF8"/>
</svg>
