<svg width="12" height="14" viewBox="0 0 12 14" fill="none" xmlns="http://www.w3.org/2000/svg">
<path d="M10.6665 5.66669C10.6665 9.55557 5.6665 12.8889 5.6665 12.8889C5.6665 12.8889 0.666504 9.55557 0.666504 5.66669C0.666504 4.3406 1.19329 3.06883 2.13097 2.13115C3.06865 1.19347 4.34042 0.666687 5.6665 0.666687C6.99259 0.666687 8.26436 1.19347 9.20204 2.13115C10.1397 3.06883 10.6665 4.3406 10.6665 5.66669Z" stroke="black" stroke-width="1.33333" stroke-linecap="round" stroke-linejoin="round"/>
<path d="M5.66618 7.33333C6.58665 7.33333 7.33284 6.58714 7.33284 5.66667C7.33284 4.74619 6.58665 4 5.66618 4C4.7457 4 3.99951 4.74619 3.99951 5.66667C3.99951 6.58714 4.7457 7.33333 5.66618 7.33333Z" stroke="black" stroke-width="1.33333" stroke-linecap="round" stroke-linejoin="round"/>
</svg>
