<svg width="100" height="30" viewBox="0 0 100 30" fill="none" xmlns="http://www.w3.org/2000/svg">
<g clip-path="url(#clip0_2065_39)">
<path d="M42.3479 19.973C42.3479 20.887 41.9994 21.2365 41.1418 21.2365H38.113V18.1182H41.1418C41.9994 18.1182 42.3479 18.5483 42.3479 19.3816V19.973ZM41.1418 16.0751H34.8164V17.9837L35.9422 18.145V25.7796H38.113V23.2795H41.1418C43.6344 23.2795 44.4921 22.016 44.4921 20.0537V19.301C44.4921 17.4461 43.688 16.0751 41.1418 16.0751ZM87.8585 16.0751H88.6625V25.7796H86.4916V18.8975L82.0155 25.7796H79.5229V16.0751H81.6939V22.7164L84.9638 17.6343C85.7947 16.3439 86.5183 16.0751 87.8585 16.0751ZM26.5881 4.22012H32.5114V5.42976C32.5114 6.39756 32.431 7.20395 32.2165 7.9298H30.3672V6.26311H26.5881C25.4623 6.26311 25.1942 6.55886 25.1942 7.79545V10.3492C25.1942 11.5858 25.4623 11.8815 26.5881 11.8815H32.5114V13.9245H26.5881C23.8275 13.9245 23.0234 13.1181 23.0234 10.3492V7.79545C23.0234 4.99967 23.8275 4.22012 26.5881 4.22012ZM86.4916 4.22012H88.6625V13.9245H86.4916V10.0266H81.6939V13.9245H79.5229V4.22012H81.6939V7.9836H86.4916V4.22012ZM29.2683 23.7366H25.5159V21.8548H29.2683C29.992 21.8548 30.26 22.2043 30.26 22.7687C30.26 23.3333 29.992 23.7366 29.2683 23.7366ZM29.8311 18.9784C29.8311 19.5699 29.5364 19.8924 28.7858 19.8924H25.5159V18.145H28.7858C29.5364 18.145 29.8311 18.4138 29.8311 18.9784ZM31.0705 20.6513C31.5793 20.3398 32.0022 19.6778 32.0022 18.6558C32.0022 17.3385 31.2517 16.0751 29.0271 16.0751H23.345V25.7796H29.2415C31.3856 25.7796 32.431 24.6775 32.431 22.8763C32.431 21.6652 31.7375 20.9514 31.0705 20.6513ZM71.6965 16.0751H77.6735V17.2848C77.6735 18.2526 77.5932 19.059 77.3786 19.7849H75.5293V18.1182H71.6965C70.5709 18.1182 70.3029 18.4138 70.3029 19.6505V22.2043C70.3029 23.4409 70.5709 23.7366 71.6965 23.7366H77.6735V25.7796H71.6965C68.9359 25.7796 68.1318 24.9731 68.1318 22.2043V19.6505C68.1318 16.8546 68.9359 16.0751 71.6965 16.0751ZM53.3904 22.2043C53.3904 23.4409 53.1224 23.7366 51.9968 23.7366H49.4237C48.298 23.7366 48.03 23.4409 48.03 22.2043V19.6505C48.03 18.4138 48.298 18.1182 49.4237 18.1182H51.9968C53.1224 18.1182 53.3904 18.4138 53.3904 19.6505V22.2043ZM51.9968 16.0751H49.4237C46.663 16.0751 45.859 16.8546 45.859 19.6505V22.2043C45.859 24.9731 46.663 25.7796 49.4237 25.7796H51.9968C54.7843 25.7796 55.5615 24.9731 55.5615 22.2043V19.6505C55.5615 16.8546 54.7843 16.0751 51.9968 16.0751ZM37.582 6.26311H41.4099V11.5858H36.7661C37.0629 11.0657 37.1881 10.3407 37.2823 9.40834L37.582 6.26311ZM43.5808 4.22012H35.6741L35.1917 9.13954C34.9505 11.4783 34.602 11.8546 33.9587 11.8546H33.8247V14.8385H35.8885L35.9689 13.6019H42.3479L42.4283 14.8385H44.4921V11.8277H43.5808V4.22012ZM60.6539 16.0751H66.6041V17.2848C66.6041 18.2526 66.5237 19.059 66.3092 19.7849H64.4599V18.1182H60.6539C59.5282 18.1182 59.2602 18.4138 59.2602 19.6505V22.2043C59.2602 23.4409 59.5282 23.7366 60.6539 23.7366H66.6041V25.7796H60.6539C57.8933 25.7796 57.0892 24.9731 57.0892 22.2043V19.6505C57.0892 16.8546 57.8933 16.0751 60.6539 16.0751ZM97.8289 10.3492C97.8289 11.5858 97.5609 11.8815 96.4353 11.8815H94.0498C92.9241 11.8815 92.6561 11.5858 92.6561 10.3492V7.79545C92.6561 6.55886 92.9241 6.26311 94.0498 6.26311H96.4353C97.5609 6.26311 97.8289 6.55886 97.8289 7.79545V10.3492ZM96.4353 4.22012H94.0498C91.2891 4.22012 90.4851 4.99967 90.4851 7.79545V10.3492C90.4851 13.1181 91.5571 13.9245 94.3178 13.9245H96.1673C98.9547 13.9245 100 13.1181 100 10.3492V7.79545C100 4.99967 99.2228 4.22012 96.4353 4.22012ZM46.0198 10.3492V7.79545C46.0198 4.99967 46.7971 4.22012 49.5846 4.22012H55.2666V6.26311H49.4773C48.3516 6.26311 48.1908 6.45126 48.1908 7.68785V8.01045H53.6853V10.0266H48.1908V10.4568C48.1908 11.6934 48.3516 11.8815 49.4773 11.8815H55.3471V13.9245H49.5846C46.7971 13.9245 46.0198 13.1181 46.0198 10.3492ZM71.911 6.26311H75.3149V8.65565H70.5172V7.79545C70.5172 6.69331 70.6513 6.26311 71.911 6.26311ZM70.5172 10.6718H75.3149V13.9245H77.4859V4.22012H71.911C69.1771 4.22012 68.3463 4.97282 68.3463 7.79545V13.9245H70.5172V10.6718ZM12.7848 16.0751H14.9557V25.7796H8.01397C5.22644 25.7796 4.1812 24.7312 4.1812 21.9355V16.0751H6.35214V21.9892C6.35214 23.2259 6.83462 23.7366 7.96033 23.7366H12.7848V16.0751ZM2.09054 2.09638H17.0464V27.9033H2.09054V2.09638ZM0 30H19.137V-0.000403104H0V30ZM56.6605 13.9245V11.8546C57.5449 11.8546 57.7593 11.317 57.947 9.51584L58.5366 4.22012H66.3092V13.9245H64.1384V6.26311H60.3947L60.0108 9.97289C59.6891 13.1718 58.8314 14.0321 56.6605 13.9245ZM99.0351 16.0751H99.8391V25.7796H97.6682V18.8975L93.1921 25.7796H90.6996V16.0751H92.8704V22.7164L96.1404 17.6343C96.9713 16.3439 97.695 16.0751 99.0351 16.0751ZM11.7128 8.4675H6.35214V6.26311H11.7128C12.5167 6.26311 12.8919 6.69331 12.8919 7.3384C12.8919 7.9836 12.5703 8.4675 11.7128 8.4675ZM15.063 7.09645C15.063 5.48356 14.2858 4.22012 12.0074 4.22012H4.1812V13.9245H6.35214V10.5105H11.3642C12.49 10.5105 12.7848 10.8331 12.7848 11.9622V13.9245H14.9557V11.6126C14.9557 10.4595 14.5479 9.78305 13.642 9.55294C14.5845 9.23341 15.063 8.31941 15.063 7.09645Z" fill="white"/>
</g>
<defs>
<clipPath id="clip0_2065_39">
<rect width="100" height="30" fill="white"/>
</clipPath>
</defs>
</svg>
