<svg width="14" height="14" viewBox="0 0 14 14" fill="none" xmlns="http://www.w3.org/2000/svg">
<path d="M12.6661 9.65099V11.4575C12.6668 11.6252 12.6324 11.7912 12.5651 11.9448C12.4978 12.0985 12.399 12.2364 12.2752 12.3498C12.1514 12.4632 12.0052 12.5495 11.846 12.6032C11.6868 12.6569 11.5182 12.6769 11.3508 12.6618C9.49419 12.4605 7.71076 11.8273 6.14385 10.8132C4.68603 9.88864 3.45006 8.65512 2.52371 7.2002C1.50402 5.62928 0.869449 3.84073 0.671401 1.97946C0.656324 1.81294 0.676153 1.64511 0.729625 1.48666C0.783098 1.32821 0.869043 1.18261 0.981989 1.05913C1.09493 0.935642 1.23241 0.836982 1.38565 0.769427C1.53889 0.701872 1.70455 0.666903 1.87208 0.666745H3.68215C3.97496 0.663869 4.25883 0.767354 4.48085 0.95791C4.70287 1.14847 4.84788 1.41309 4.88886 1.70246C4.96526 2.28058 5.10695 2.84821 5.31121 3.39454C5.39239 3.61006 5.40996 3.8443 5.36184 4.06949C5.31372 4.29467 5.20192 4.50138 5.0397 4.6651L4.27344 5.42984C5.13235 6.93738 6.38305 8.1856 7.89358 9.04281L8.65984 8.27806C8.82389 8.11617 9.031 8.00459 9.25664 7.95657C9.48227 7.90854 9.71697 7.92607 9.93293 8.00709C10.4803 8.21095 11.0491 8.35236 11.6284 8.4286C11.9214 8.46987 12.1891 8.61721 12.3805 8.84259C12.5718 9.06797 12.6735 9.35568 12.6661 9.65099Z" stroke="black" stroke-width="1.33333" stroke-linecap="round" stroke-linejoin="round"/>
</svg>
