<svg width="22" height="22" viewBox="0 0 22 22" fill="none" xmlns="http://www.w3.org/2000/svg">
<path d="M13.8812 5.2226H3.78845C2.50947 5.2226 1.47266 6.25941 1.47266 7.53838V17.453C1.47266 18.0924 1.99106 18.6109 2.63055 18.6109H3.76842C4.40791 18.6109 4.92631 18.0924 4.92631 17.453V14.2552H11.5442L13.8729 17.6144C14.3056 18.2385 15.0167 18.6109 15.7761 18.6109H16.0948C17.0527 18.6109 17.5963 17.5141 17.0163 16.7518L15.1013 14.2351C16.1354 14.0746 16.8799 13.6932 17.3349 13.091C17.7898 12.4889 18.0173 11.5254 18.0173 10.2408V9.23714C18.0173 8.47436 17.9347 7.87222 17.7899 7.41056C17.6451 6.94891 17.3969 6.54741 17.0453 6.18613C16.6731 5.8449 16.2595 5.60404 15.7631 5.44351C15.2668 5.30303 14.6463 5.2226 13.8812 5.2226ZM13.3229 11.3047H4.92631V8.17323H13.3229C13.7984 8.17323 14.1293 8.25344 14.2948 8.39403C14.4602 8.53451 14.5637 8.79542 14.5637 9.17687V10.3009C14.5637 10.7023 14.4602 10.9632 14.2948 11.1037C14.1293 11.2442 13.7985 11.3047 13.3229 11.3047Z" fill="white"/>
<path d="M18.7838 4.99333C19.4163 4.99333 19.9294 4.48034 19.9294 3.84749C19.9294 3.21465 19.4163 2.70166 18.7838 2.70166C18.1508 2.70166 17.6377 3.21465 17.6377 3.84749C17.6377 4.48034 18.1508 4.99333 18.7838 4.99333Z" fill="white"/>
</svg>
