<svg width="18" height="15" viewBox="0 0 18 15" fill="none" xmlns="http://www.w3.org/2000/svg">
<path d="M16.8493 0.120941L0.836852 6.24904C-0.243745 6.63812 -0.243745 7.31902 0.64038 7.51357L4.66806 8.77809L6.23984 13.4471C6.43631 13.9335 6.33807 14.128 6.82925 14.128C7.2222 14.128 7.41867 13.9335 7.61514 13.7389C7.71338 13.6417 8.5975 12.7662 9.57986 11.7935L13.7058 14.8089C14.4917 15.198 14.9829 15.0035 15.1793 14.128L17.9299 1.38547C18.2246 0.315484 17.537 -0.268144 16.8493 0.120941ZM14.7864 3.03908L7.12396 9.94535L6.82925 13.1553L5.25748 8.48628L14.2952 2.84454C14.6881 2.55273 15.0811 2.74727 14.7864 3.03908Z" fill="#FDFDF8"/>
</svg>
