<svg width="20" height="12" viewBox="0 0 20 12" fill="none" xmlns="http://www.w3.org/2000/svg">
<path d="M11.8777 5.55018C11.519 5.41379 11.519 4.89288 11.4968 4.53013C11.4071 3.23801 11.8555 1.26537 11.3175 0.426686C10.9365 -0.07246 9.09797 -0.0267534 7.97746 0.0414439C7.66326 0.0871505 7.28234 0.154623 7.01333 0.291017C6.74433 0.427412 6.47532 0.653768 6.47532 0.857634C6.47532 1.15219 7.1482 1.10721 7.39425 1.49245C7.66326 1.90091 7.66326 2.78457 7.66326 3.51007C7.66326 4.34875 7.52839 5.46022 7.19267 5.5052C6.6769 5.52769 6.38565 5.00606 6.11664 4.62082C5.57863 3.87282 5.04061 2.94273 4.63674 2.03585C4.43517 1.55992 4.32254 1.03828 4.0313 0.834418C3.58295 0.516648 2.77593 0.494158 1.99114 0.516649C1.27379 0.539139 0.242234 0.448451 0.0406573 0.8794C-0.116443 1.35533 0.219996 1.80877 0.399334 2.19474C1.31826 4.21236 2.30463 5.98113 3.51552 7.6585C4.63674 9.22268 5.68982 10.4698 7.75221 11.1271C8.33542 11.3085 10.8906 11.8301 11.4064 11.1271C11.5857 10.8551 11.5413 10.2427 11.6309 9.7893C11.7206 9.33586 11.8325 8.88242 12.2586 8.85993C12.6173 8.83744 12.8189 9.15448 13.0434 9.38156C13.2902 9.63114 13.4918 9.835 13.6711 10.0621C14.0972 10.493 14.5455 11.0821 15.0836 11.3092C15.8232 11.627 16.9666 11.5363 18.0426 11.4906C18.9171 11.4681 19.5448 11.2867 19.6122 10.7651C19.6574 10.3566 19.2083 9.76753 18.9393 9.42727C18.2665 8.58859 17.953 8.33902 17.1904 7.56781C16.854 7.22755 16.4279 6.8648 16.4279 6.45706C16.4056 6.20749 16.6072 5.98113 16.7866 5.73156C17.5713 4.55262 18.3561 3.71394 19.0735 2.48929C19.2751 2.12654 19.7464 1.28786 19.567 0.8794C19.3654 0.425961 18.2442 0.561629 17.5491 0.561629C16.6524 0.561629 15.4867 0.493432 15.2622 0.674808C14.8361 0.969362 14.6567 1.44602 14.4552 1.89946C14.0068 2.94273 13.4014 4.00777 12.7737 4.80147C12.5492 5.07353 12.1238 5.64015 11.877 5.54946L11.8777 5.55018Z" fill="#FDFDF8"/>
</svg>
